<svg viewBox="0 0 820 60" xmlns="http://www.w3.org/2000/svg">
<line x1="0" y1="30.0" x2="820" y2="30.0" stroke="#21262d" stroke-width="1"/>
<line x1="0.0" y1="26.0" x2="0.0" y2="34.0" stroke="#21262d" stroke-width="1"/>
<line x1="41.0" y1="26.0" x2="41.0" y2="34.0" stroke="#21262d" stroke-width="1"/>
<line x1="82.0" y1="26.0" x2="82.0" y2="34.0" stroke="#21262d" stroke-width="1"/>
<line x1="123.0" y1="26.0" x2="123.0" y2="34.0" stroke="#21262d" stroke-width="1"/>
<line x1="164.0" y1="26.0" x2="164.0" y2="34.0" stroke="#21262d" stroke-width="1"/>
<line x1="205.0" y1="26.0" x2="205.0" y2="34.0" stroke="#21262d" stroke-width="1"/>
<line x1="246.0" y1="26.0" x2="246.0" y2="34.0" stroke="#21262d" stroke-width="1"/>
<line x1="287.0" y1="26.0" x2="287.0" y2="34.0" stroke="#21262d" stroke-width="1"/>
<line x1="328.0" y1="26.0" x2="328.0" y2="34.0" stroke="#21262d" stroke-width="1"/>
<line x1="369.0" y1="26.0" x2="369.0" y2="34.0" stroke="#21262d" stroke-width="1"/>
<line x1="410.0" y1="26.0" x2="410.0" y2="34.0" stroke="#21262d" stroke-width="1"/>
<line x1="451.0" y1="26.0" x2="451.0" y2="34.0" stroke="#21262d" stroke-width="1"/>
<line x1="492.0" y1="26.0" x2="492.0" y2="34.0" stroke="#21262d" stroke-width="1"/>
<line x1="533.0" y1="26.0" x2="533.0" y2="34.0" stroke="#21262d" stroke-width="1"/>
<line x1="574.0" y1="26.0" x2="574.0" y2="34.0" stroke="#21262d" stroke-width="1"/>
<line x1="615.0" y1="26.0" x2="615.0" y2="34.0" stroke="#21262d" stroke-width="1"/>
<line x1="656.0" y1="26.0" x2="656.0" y2="34.0" stroke="#21262d" stroke-width="1"/>
<line x1="697.0" y1="26.0" x2="697.0" y2="34.0" stroke="#21262d" stroke-width="1"/>
<line x1="738.0" y1="26.0" x2="738.0" y2="34.0" stroke="#21262d" stroke-width="1"/>
<line x1="779.0" y1="26.0" x2="779.0" y2="34.0" stroke="#21262d" stroke-width="1"/>
<line x1="820.0" y1="26.0" x2="820.0" y2="34.0" stroke="#21262d" stroke-width="1"/>
<path d="M 0.00 30.00 L 3.42 30.03 L 6.83 30.12 L 10.25 30.26 L 13.67 30.46 L 17.08 30.69 L 20.50 30.95 L 23.92 31.24 L 27.33 31.53 L 30.75 31.81 L 34.17 32.07 L 37.58 32.30 L 41.00 32.47 L 44.42 32.59 L 47.83 32.63 L 51.25 32.60 L 54.67 32.47 L 58.08 32.26 L 61.50 31.95 L 64.92 31.55 L 68.33 31.07 L 71.75 30.51 L 75.17 29.88 L 78.58 29.20 L 82.00 28.47 L 85.42 27.73 L 88.83 26.97 L 92.25 26.24 L 95.67 25.54 L 99.08 24.90 L 102.50 24.34 L 105.92 23.88 L 109.33 23.53 L 112.75 23.31 L 116.17 23.23 L 119.58 23.30 L 123.00 23.53 L 126.42 23.92 L 129.83 24.46 L 133.25 25.16 L 136.67 26.00 L 140.08 26.97 L 143.50 28.05 L 146.92 29.22 L 150.33 30.46 L 153.75 31.73 L 157.17 33.03 L 160.58 34.30 L 164.00 35.53 L 167.42 36.68 L 170.83 37.73 L 174.25 38.64 L 177.67 39.40 L 181.08 39.98 L 184.50 40.36 L 187.92 40.53 L 191.33 40.47 L 194.75 40.19 L 198.17 39.68 L 201.58 38.95 L 205.00 38.00 L 208.42 36.86 L 211.83 35.54 L 215.25 34.07 L 218.67 32.47 L 222.08 30.79 L 225.50 29.05 L 228.92 27.29 L 232.33 25.54 L 235.75 23.86 L 239.17 22.27 L 242.58 20.82 L 246.00 19.53 L 249.42 18.44 L 252.83 17.57 L 256.25 16.95 L 259.67 16.60 L 263.08 16.53 L 266.50 16.73 L 269.92 17.23 L 273.33 18.00 L 276.75 19.04 L 280.17 20.32 L 283.58 21.83 L 287.00 23.53 L 290.42 25.39 L 293.83 27.37 L 297.25 29.43 L 300.67 31.53 L 304.08 33.62 L 307.50 35.66 L 310.92 37.60 L 314.33 39.40 L 317.75 41.02 L 321.17 42.43 L 324.58 43.59 L 328.00 44.47 L 331.42 45.06 L 334.83 45.34 L 338.25 45.29 L 341.67 44.93 L 345.08 44.25 L 348.50 43.27 L 351.92 42.00 L 355.33 40.47 L 358.75 38.72 L 362.17 36.77 L 365.58 34.68 L 369.00 32.47 L 372.42 30.21 L 375.83 27.93 L 379.25 25.69 L 382.67 23.53 L 386.08 21.50 L 389.50 19.64 L 392.92 18.00 L 396.33 16.60 L 399.75 15.48 L 403.17 14.66 L 406.58 14.17 L 410.00 14.00 L 413.42 14.17 L 416.83 14.66 L 420.25 15.48 L 423.67 16.60 L 427.08 18.00 L 430.50 19.64 L 433.92 21.50 L 437.33 23.53 L 440.75 25.69 L 444.17 27.93 L 447.58 30.21 L 451.00 32.47 L 454.42 34.68 L 457.83 36.77 L 461.25 38.72 L 464.67 40.47 L 468.08 42.00 L 471.50 43.27 L 474.92 44.25 L 478.33 44.93 L 481.75 45.29 L 485.17 45.34 L 488.58 45.06 L 492.00 44.47 L 495.42 43.59 L 498.83 42.43 L 502.25 41.02 L 505.67 39.40 L 509.08 37.60 L 512.50 35.66 L 515.92 33.62 L 519.33 31.53 L 522.75 29.43 L 526.17 27.37 L 529.58 25.39 L 533.00 23.53 L 536.42 21.83 L 539.83 20.32 L 543.25 19.04 L 546.67 18.00 L 550.08 17.23 L 553.50 16.73 L 556.92 16.53 L 560.33 16.60 L 563.75 16.95 L 567.17 17.57 L 570.58 18.44 L 574.00 19.53 L 577.42 20.82 L 580.83 22.27 L 584.25 23.86 L 587.67 25.54 L 591.08 27.29 L 594.50 29.05 L 597.92 30.79 L 601.33 32.47 L 604.75 34.07 L 608.17 35.54 L 611.58 36.86 L 615.00 38.00 L 618.42 38.95 L 621.83 39.68 L 625.25 40.19 L 628.67 40.47 L 632.08 40.53 L 635.50 40.36 L 638.92 39.98 L 642.33 39.40 L 645.75 38.64 L 649.17 37.73 L 652.58 36.68 L 656.00 35.53 L 659.42 34.30 L 662.83 33.03 L 666.25 31.73 L 669.67 30.46 L 673.08 29.22 L 676.50 28.05 L 679.92 26.97 L 683.33 26.00 L 686.75 25.16 L 690.17 24.46 L 693.58 23.92 L 697.00 23.53 L 700.42 23.30 L 703.83 23.23 L 707.25 23.31 L 710.67 23.53 L 714.08 23.88 L 717.50 24.34 L 720.92 24.90 L 724.33 25.54 L 727.75 26.24 L 731.17 26.97 L 734.58 27.73 L 738.00 28.47 L 741.42 29.20 L 744.83 29.88 L 748.25 30.51 L 751.67 31.07 L 755.08 31.55 L 758.50 31.95 L 761.92 32.26 L 765.33 32.47 L 768.75 32.60 L 772.17 32.63 L 775.58 32.59 L 779.00 32.47 L 782.42 32.30 L 785.83 32.07 L 789.25 31.81 L 792.67 31.53 L 796.08 31.24 L 799.50 30.95 L 802.92 30.69 L 806.33 30.46 L 809.75 30.26 L 813.17 30.12 L 816.58 30.03 L 820.00 30.00" fill="none" stroke="#FFB000" stroke-width="2" stroke-linecap="round" stroke-linejoin="round" stroke-dasharray="864.3" stroke-dashoffset="864.3"><animate attributeName="stroke-dashoffset" from="864.3" to="0" begin="0.1s" dur="1.3s" fill="freeze" calcMode="spline" keySplines="0.3 0 0.2 1"/></path>
<circle r="3.2" fill="#FFB000"><animateMotion path="M 0.00 30.00 L 3.42 30.03 L 6.83 30.12 L 10.25 30.26 L 13.67 30.46 L 17.08 30.69 L 20.50 30.95 L 23.92 31.24 L 27.33 31.53 L 30.75 31.81 L 34.17 32.07 L 37.58 32.30 L 41.00 32.47 L 44.42 32.59 L 47.83 32.63 L 51.25 32.60 L 54.67 32.47 L 58.08 32.26 L 61.50 31.95 L 64.92 31.55 L 68.33 31.07 L 71.75 30.51 L 75.17 29.88 L 78.58 29.20 L 82.00 28.47 L 85.42 27.73 L 88.83 26.97 L 92.25 26.24 L 95.67 25.54 L 99.08 24.90 L 102.50 24.34 L 105.92 23.88 L 109.33 23.53 L 112.75 23.31 L 116.17 23.23 L 119.58 23.30 L 123.00 23.53 L 126.42 23.92 L 129.83 24.46 L 133.25 25.16 L 136.67 26.00 L 140.08 26.97 L 143.50 28.05 L 146.92 29.22 L 150.33 30.46 L 153.75 31.73 L 157.17 33.03 L 160.58 34.30 L 164.00 35.53 L 167.42 36.68 L 170.83 37.73 L 174.25 38.64 L 177.67 39.40 L 181.08 39.98 L 184.50 40.36 L 187.92 40.53 L 191.33 40.47 L 194.75 40.19 L 198.17 39.68 L 201.58 38.95 L 205.00 38.00 L 208.42 36.86 L 211.83 35.54 L 215.25 34.07 L 218.67 32.47 L 222.08 30.79 L 225.50 29.05 L 228.92 27.29 L 232.33 25.54 L 235.75 23.86 L 239.17 22.27 L 242.58 20.82 L 246.00 19.53 L 249.42 18.44 L 252.83 17.57 L 256.25 16.95 L 259.67 16.60 L 263.08 16.53 L 266.50 16.73 L 269.92 17.23 L 273.33 18.00 L 276.75 19.04 L 280.17 20.32 L 283.58 21.83 L 287.00 23.53 L 290.42 25.39 L 293.83 27.37 L 297.25 29.43 L 300.67 31.53 L 304.08 33.62 L 307.50 35.66 L 310.92 37.60 L 314.33 39.40 L 317.75 41.02 L 321.17 42.43 L 324.58 43.59 L 328.00 44.47 L 331.42 45.06 L 334.83 45.34 L 338.25 45.29 L 341.67 44.93 L 345.08 44.25 L 348.50 43.27 L 351.92 42.00 L 355.33 40.47 L 358.75 38.72 L 362.17 36.77 L 365.58 34.68 L 369.00 32.47 L 372.42 30.21 L 375.83 27.93 L 379.25 25.69 L 382.67 23.53 L 386.08 21.50 L 389.50 19.64 L 392.92 18.00 L 396.33 16.60 L 399.75 15.48 L 403.17 14.66 L 406.58 14.17 L 410.00 14.00 L 413.42 14.17 L 416.83 14.66 L 420.25 15.48 L 423.67 16.60 L 427.08 18.00 L 430.50 19.64 L 433.92 21.50 L 437.33 23.53 L 440.75 25.69 L 444.17 27.93 L 447.58 30.21 L 451.00 32.47 L 454.42 34.68 L 457.83 36.77 L 461.25 38.72 L 464.67 40.47 L 468.08 42.00 L 471.50 43.27 L 474.92 44.25 L 478.33 44.93 L 481.75 45.29 L 485.17 45.34 L 488.58 45.06 L 492.00 44.47 L 495.42 43.59 L 498.83 42.43 L 502.25 41.02 L 505.67 39.40 L 509.08 37.60 L 512.50 35.66 L 515.92 33.62 L 519.33 31.53 L 522.75 29.43 L 526.17 27.37 L 529.58 25.39 L 533.00 23.53 L 536.42 21.83 L 539.83 20.32 L 543.25 19.04 L 546.67 18.00 L 550.08 17.23 L 553.50 16.73 L 556.92 16.53 L 560.33 16.60 L 563.75 16.95 L 567.17 17.57 L 570.58 18.44 L 574.00 19.53 L 577.42 20.82 L 580.83 22.27 L 584.25 23.86 L 587.67 25.54 L 591.08 27.29 L 594.50 29.05 L 597.92 30.79 L 601.33 32.47 L 604.75 34.07 L 608.17 35.54 L 611.58 36.86 L 615.00 38.00 L 618.42 38.95 L 621.83 39.68 L 625.25 40.19 L 628.67 40.47 L 632.08 40.53 L 635.50 40.36 L 638.92 39.98 L 642.33 39.40 L 645.75 38.64 L 649.17 37.73 L 652.58 36.68 L 656.00 35.53 L 659.42 34.30 L 662.83 33.03 L 666.25 31.73 L 669.67 30.46 L 673.08 29.22 L 676.50 28.05 L 679.92 26.97 L 683.33 26.00 L 686.75 25.16 L 690.17 24.46 L 693.58 23.92 L 697.00 23.53 L 700.42 23.30 L 703.83 23.23 L 707.25 23.31 L 710.67 23.53 L 714.08 23.88 L 717.50 24.34 L 720.92 24.90 L 724.33 25.54 L 727.75 26.24 L 731.17 26.97 L 734.58 27.73 L 738.00 28.47 L 741.42 29.20 L 744.83 29.88 L 748.25 30.51 L 751.67 31.07 L 755.08 31.55 L 758.50 31.95 L 761.92 32.26 L 765.33 32.47 L 768.75 32.60 L 772.17 32.63 L 775.58 32.59 L 779.00 32.47 L 782.42 32.30 L 785.83 32.07 L 789.25 31.81 L 792.67 31.53 L 796.08 31.24 L 799.50 30.95 L 802.92 30.69 L 806.33 30.46 L 809.75 30.26 L 813.17 30.12 L 816.58 30.03 L 820.00 30.00" begin="0.1s" dur="1.3s" fill="freeze"/><animate attributeName="opacity" values="0;1;1;0" keyTimes="0;0.04;0.9;1" begin="0.1s" dur="1.55s" fill="freeze"/></circle>
</svg>